<svg height="512pt" viewBox="-16 0 512 512" width="512pt" xmlns="http://www.w3.org/2000/svg"><path d="m306.664062 229.265625c8.527344-8.921875 13.335938-20.777344 13.335938-33.144531v-92.121094h-160v92.121094c0 10.925781 3.753906 21.453125 10.496094 29.910156-39.695313 23.449219-66.496094 67.449219-66.496094 117.96875 0 75.113281 59.097656 136 132 136s132-60.886719 132-136c0-48.296875-24.503906-90.609375-61.335938-114.734375zm0 0" fill="#fcb641"/><path d="m400 504h-344v-48c0-17.671875 14.328125-32 32-32h312zm0 0" fill="#33c0db"/><path d="m432 464c0 22.089844-17.910156 40-40 40s-40-17.910156-40-40 17.910156-40 40-40 40 17.910156 40 40zm0 0" fill="#2ba3ba"/><path d="m384 176v-32c0-8.839844 7.160156-16 16-16s16 7.160156 16 16v32zm0 0" fill="#33c0db"/><path d="m424 176h-16v-32c0-4.414062-3.585938-8-8-8s-8 3.585938-8 8v32h-16v-32c0-13.230469 10.769531-24 24-24s24 10.769531 24 24zm0 0"/><path d="m184 392c-13.257812 0-24 10.742188-24 24v8l24 24 24-24v-8c0-13.257812-10.742188-24-24-24zm0 0" fill="#b35f39"/><path d="m296 392c-13.257812 0-24 10.742188-24 24v8l24 24 24-24v-8c0-13.257812-10.742188-24-24-24zm0 0" fill="#b35f39"/><path d="m353.734375 472c0 17.671875 13.707031 32 30.609375 32h7.65625-321.390625c-16.90625 0-30.609375-14.328125-30.609375-32zm0 0" fill="#5ed4eb"/><path d="m240 224c-2.671875 0-5.167969-1.335938-6.65625-3.558594l-16-24 13.3125-8.875 9.34375 14.007813 9.34375-14.015625 13.3125 8.875-16 24c-1.488281 2.230468-3.984375 3.566406-6.65625 3.566406zm0 0"/><path d="m208 352c-2.046875 0-4.097656-.785156-5.65625-2.34375l-16-16 11.3125-11.3125 10.34375 10.34375 10.34375-10.34375 11.3125 11.3125-16 16c-1.558594 1.558594-3.609375 2.34375-5.65625 2.34375zm0 0"/><path d="m240 392c-2.046875 0-4.097656-.785156-5.65625-2.34375l-16-16 11.3125-11.3125 10.34375 10.34375 10.34375-10.34375 11.3125 11.3125-16 16c-1.558594 1.558594-3.609375 2.34375-5.65625 2.34375zm0 0"/><path d="m272 352c-2.046875 0-4.097656-.785156-5.65625-2.34375l-16-16 11.3125-11.3125 10.34375 10.34375 10.34375-10.34375 11.3125 11.3125-16 16c-1.558594 1.558594-3.609375 2.34375-5.65625 2.34375zm0 0"/><path d="m113 394.144531c80.992188-76.074219 55-162.738281 55-162.738281l-8-15.40625-43.664062 80.671875c-17.761719 36.351563-16.015626 78.753906 4.679687 113.640625l8.097656 13.648438" fill="#b35f39"/><path d="m363.128906 394.144531c-81-76.074219-55-162.738281-55-162.738281l8-15.40625 43.664063 80.671875c17.757812 36.351563 16.015625 78.753906-4.679688 113.640625l-8.097656 13.648438" fill="#b35f39"/><path d="m392 416h-30.960938l.953126-1.609375c22.054687-37.167969 23.910156-82.496094 4.832031-121.519531l-42.144531-77.878906c2.144531-5.984376 3.320312-12.335938 3.320312-18.871094v-52.121094h-16v52.121094c0 10.6875-4.167969 20.734375-11.71875 28.285156l-60.28125 60.28125-60.28125-60.28125c-7.550781-7.558594-11.71875-17.597656-11.71875-28.285156v-52.121094h-16v52.121094c0 5.015625.710938 9.910156 1.984375 14.632812-.375.453125-.738281.917969-1.023437 1.445313l-43.816407 80.96875c-18.929687 38.742187-17.066406 84.070312 4.992188 121.222656l.960937 1.609375h-27.097656c-22.054688 0-40 17.945312-40 40v8h-8c-4.425781 0-8 3.574219-8 8 0 22.054688 17.320312 40 38.609375 40h321.390625c26.472656 0 48-21.527344 48-48s-21.527344-48-48-48zm-32.265625-36.519531c-62.285156-65.96875-46.023437-137.6875-44.109375-145.144531l.65625-1.257813 36.320312 67.113281c12.230469 25.007813 14.535157 53.167969 7.132813 79.289063zm-236.359375-79 36.480469-67.402344.664062 1.265625c1.960938 7.511719 18.417969 78.96875-44.128906 145.144531-7.40625-26.105469-5.132813-54.207031 6.984375-79.007812zm4.527344 105.742187c-1.964844-3.3125-3.757813-6.710937-5.359375-10.167968 58.777343-57.894532 60.007812-120.335938 56.402343-149.796876l55.390626 55.390626c1.566406 1.566406 3.617187 2.351562 5.664062 2.351562s4.097656-.785156 5.65625-2.34375l51.0625-51.0625c-2.902344 30.941406.816406 90.253906 56.867188 145.46875-1.601563 3.457031-3.394532 6.847656-5.363282 10.167969l-5.796875 9.769531h-14.425781c0-17.648438-14.351562-32-32-32s-32 14.351562-32 32h-48c0-17.648438-14.351562-32-32-32s-32 14.351562-32 32h-18.304688zm184.097656 9.777344v4.6875l-16 16-16-16v-4.6875c0-8.824219 7.175781-16 16-16s16 7.175781 16 16zm-144 0c0-8.824219 7.175781-16 16-16s16 7.175781 16 16v4.6875l-16 16-16-16zm224 80h-7.648438c-12.472656 0-22.609374-10.769531-22.609374-24 0-4.425781-3.574219-8-8-8h-201.742188v16h194.511719c1.167969 5.902344 3.585937 11.34375 6.96875 16h-282.871094c-9.832031 0-18.210937-6.6875-21.320313-16h86.710938v-16h-72v-8c0-13.230469 10.769531-24 24-24h68.6875l21.65625 21.65625c1.558594 1.558594 3.609375 2.34375 5.65625 2.34375s4.097656-.785156 5.65625-2.34375l21.65625-21.65625h57.375l21.65625 21.65625c1.558594 1.558594 3.609375 2.34375 5.65625 2.34375s4.097656-.785156 5.65625-2.34375l21.65625-21.65625h36.894531c-5.078125 6.703125-8.207031 14.960938-8.207031 24h16c0-13.230469 10.769531-24 24-24 17.648438 0 32 14.351562 32 32s-14.351562 32-32 32zm0 0"/><path d="m232 152c0 13.257812-10.742188 24-24 24s-24-10.742188-24-24c0-5.601562 1.921875-10.753906 5.128906-14.832031zm0 0" fill="#fce0b0"/><path d="m248 152c0 13.257812 10.742188 24 24 24s24-10.742188 24-24c0-5.601562-1.921875-10.753906-5.128906-14.832031zm0 0" fill="#fce0b0"/><path d="m168 124.359375 72 27.640625 72-24v-56l-72-24-72 24zm0 0" fill="#9c9792"/><path d="m240 8-160 64 88 40v-40l72-24 72 24v40l88-40zm0 0" fill="#706d69"/><path d="m408 71.816406c-.078125-3.199218-2.054688-6.046875-5.03125-7.242187l-160-64c-1.90625-.765625-4.03125-.765625-5.9375 0l-160 64c-2.976562 1.195312-4.953125 4.035156-5.03125 7.242187-.070312 3.199219 1.777344 6.152344 4.6875 7.472656l83.3125 37.863282v7.214844c0 3.3125 2.039062 6.28125 5.136719 7.472656l14.449219 5.542968c-2.328126 4.480469-3.585938 9.433594-3.585938 14.617188 0 17.648438 14.351562 32 32 32 14.945312 0 27.425781-10.335938 30.929688-24.199219.359374.046875.703124.199219 1.070312.199219.359375 0 .71875-.128906 1.078125-.175781 3.515625 13.855469 15.984375 24.175781 30.921875 24.175781 17.648438 0 32-14.351562 32-32 0-4.230469-.894531-8.289062-2.457031-12.089844l12.984375-4.324218c3.273437-1.089844 5.472656-4.136719 5.472656-7.585938v-10.847656l72-32.726563v27.574219h16v-40h-.023438c0-.0625.023438-.121094.023438-.183594zm-200 96.183594c-8.824219 0-16-7.175781-16-16 0-3.199219 1.0625-6.167969 2.808594-8.777344l28.953125 11.113282c-1.136719 7.710937-7.738281 13.664062-15.761719 13.664062zm80-16c0 8.824219-7.175781 16-16 16-7.792969 0-14.289062-5.617188-15.695312-13.007812l29.878906-9.960938c1.074218 2.167969 1.816406 4.472656 1.816406 6.96875zm16-29.769531-63.816406 21.273437-64.183594-24.640625v-41.09375l56.039062-18.679687-.039062 60.902344 16 .015624.039062-60.894531 55.960938 18.65625zm16-22.65625v-27.574219c0-3.449219-2.199219-6.496094-5.472656-7.585938l-72-24c-.816406-.269531-1.679688-.414062-2.527344-.414062s-1.710938.144531-2.527344.414062l-72 24c-3.273437 1.089844-5.472656 4.136719-5.472656 7.585938v27.574219l-59.632812-27.109375 139.632812-55.847656 139.632812 55.847656zm0 0"/><path d="m448 344h16v16h-16zm0 0"/><path d="m448 376h16v16h-16zm0 0"/><path d="m432 360h16v16h-16zm0 0"/><path d="m464 360h16v16h-16zm0 0"/><path d="m16 120h16v16h-16zm0 0"/><path d="m16 152h16v16h-16zm0 0"/><path d="m0 136h16v16h-16zm0 0"/><path d="m32 136h16v16h-16zm0 0"/></svg>